<svg xmlns="http://www.w3.org/2000/svg" xmlns:xlink="http://www.w3.org/1999/xlink" width="1080" zoomAndPan="magnify" viewBox="0 0 810 1012.49997" height="1350" preserveAspectRatio="xMidYMid meet" version="1.2"><defs><clipPath id="96ad5e2da5"><path d="M 107 26 L 703.6875 26 L 703.6875 986.863281 L 107 986.863281 Z M 107 26 "/></clipPath></defs><g id="98fbae9656"><g clip-rule="nonzero" clip-path="url(#96ad5e2da5)"><path style=" stroke:none;fill-rule:nonzero;fill:#000000;fill-opacity:1;" d="M 612.859375 985.761719 C 607.230469 984.09375 607.515625 978.3125 613.496094 972.925781 C 619.980469 967.066406 636.875 960.011719 652.058594 956.832031 C 655.980469 955.996094 659.28125 955.320312 659.398438 955.242188 C 659.515625 955.144531 656.929688 948.683594 653.660156 940.894531 C 637.59375 902.546875 630.136719 883.171875 624.210938 864.214844 C 618.605469 846.351562 604.070312 790.996094 604.042969 787.457031 C 604.042969 785.609375 603.148438 778.65625 602.074219 771.9375 C 596.210938 735.378906 594.332031 717.671875 589.976562 658.28125 C 587.535156 624.976562 585.679688 605.265625 584.246094 597.457031 L 583.558594 593.679688 L 582.117188 596.203125 C 581.328125 597.535156 573.503906 611.964844 564.71875 628.078125 C 544.261719 665.75 538.761719 675.46875 523.703125 701.058594 C 516.910156 712.644531 505.808594 731.761719 499.03125 743.761719 C 492.253906 755.664062 483.953125 769.851562 480.589844 775.21875 C 477.226562 780.582031 474.195312 785.867188 473.871094 786.878906 C 473.53125 787.875 471.085938 793.578125 468.417969 799.460938 C 461.398438 814.898438 449.46875 846.175781 439.496094 875.382812 C 434.722656 889.292969 428.316406 907.335938 425.253906 915.382812 C 422.1875 923.449219 418.492188 933.265625 417.03125 937.042969 C 413.214844 947.09375 412.117188 947.351562 395.699219 942.148438 C 378.320312 936.601562 368.96875 931.160156 358.996094 920.847656 C 354.953125 916.734375 350.949219 909.679688 350.933594 906.757812 C 350.933594 901.550781 356.425781 897.359375 362.308594 898.015625 C 371.375 899.027344 390.425781 912.023438 404.609375 926.886719 C 409.265625 931.753906 413.1875 935.609375 413.339844 935.429688 C 413.484375 935.273438 414.273438 933.007812 415.085938 930.484375 C 415.898438 927.980469 419.203125 918.660156 422.417969 909.9375 C 425.636719 901.214844 431.761719 883.589844 436.023438 870.933594 C 451.886719 823.699219 464.125 794.847656 477.972656 772.019531 C 480.488281 767.824219 487.347656 755.84375 493.210938 745.351562 C 499.066406 734.859375 507.078125 720.773438 511.003906 714.054688 C 514.929688 707.359375 521.78125 695.695312 526.234375 688.066406 C 536.445312 670.597656 565.359375 618.179688 574.628906 600.316406 L 581.640625 586.726562 L 580.792969 571.367188 C 580.324219 562.902344 579.347656 542.335938 578.636719 525.746094 C 575.996094 464.582031 572.230469 428.101562 564.738281 391.101562 C 560.105469 368.195312 551.410156 338.167969 542.886719 315.671875 C 539.230469 306.039062 527.621094 280.546875 526.261719 279.195312 C 525.664062 278.59375 525.398438 284.320312 525.398438 297.394531 C 525.398438 326.167969 523.515625 353.847656 518.269531 402.429688 C 514.375 438.414062 512.96875 449.324219 511.421875 455.265625 C 508.980469 464.742188 502.574219 481.273438 495.820312 495.542969 C 492.105469 503.429688 485.773438 517.257812 481.730469 526.398438 C 475.4375 540.585938 474.457031 543.429688 474.835938 546.289062 C 475.421875 550.644531 474.699219 553.164062 471.9375 556.445312 C 470.144531 558.53125 469.550781 560.300781 469.144531 564.75 C 468.476562 572.042969 465.1875 579.253906 461.496094 581.519531 C 459.820312 582.535156 457.246094 583.191406 455.023438 583.191406 C 451.816406 583.191406 450.910156 582.773438 448.21875 579.929688 C 445.746094 577.328125 444.671875 576.730469 442.910156 577.070312 C 437.328125 578.160156 433.957031 574.726562 433.976562 567.929688 C 433.976562 564.074219 437.148438 556.265625 439.875 553.421875 C 440.886719 552.332031 441.777344 549.46875 442.3125 545.695312 C 443.304688 538.738281 444.1875 536.136719 446.0625 534.625 C 448.117188 532.859375 448.488281 533.949219 447.472656 538.738281 C 445.453125 548.136719 446.960938 564.074219 450.578125 571.449219 C 456.421875 583.367188 463.660156 578.5 463.695312 562.644531 C 463.695312 552.152344 459.847656 540.328125 455.460938 537.488281 C 453.53125 536.214844 450.746094 536.476562 450.746094 537.984375 C 450.746094 538.402344 450.167969 538.738281 449.453125 538.738281 C 448.480469 538.738281 448.363281 538.402344 448.972656 537.230469 C 450.382812 534.625 440.738281 507.960938 427.199219 477.003906 C 423.539062 468.617188 420.539062 461.484375 420.539062 461.066406 C 420.453125 457.867188 376.425781 417.351562 366.027344 410.816406 C 356.804688 405.113281 354.574219 402.171875 358.230469 400.820312 C 363.011719 398.992188 400.574219 429.511719 417.988281 449.402344 L 425.367188 457.867188 L 434.335938 478.671875 C 442.230469 497.050781 451.113281 521.375 452.808594 529.339844 C 453.308594 531.6875 453.746094 532.023438 455.953125 532.023438 C 457.804688 532.023438 459.300781 532.859375 461.339844 535.042969 C 462.890625 536.632812 464.164062 538.402344 464.164062 538.820312 C 464.164062 539.238281 465.617188 539.574219 467.394531 539.574219 L 470.621094 539.574219 L 475.09375 529.339844 C 477.550781 523.640625 483.289062 511.140625 487.851562 501.503906 C 496.636719 482.964844 497.699219 480.519531 502.890625 466.589844 C 506.691406 456.4375 507.078125 453.933594 512.371094 406.621094 C 518.738281 349.574219 520.363281 326.25 520.363281 291.769531 L 520.363281 267.53125 L 517.714844 262.839844 C 514.90625 257.890625 502.222656 238.5 499.570312 235.160156 L 497.996094 233.234375 L 489.472656 241.957031 C 484.785156 246.808594 477.945312 252.847656 474.28125 255.527344 C 459.863281 265.9375 439.269531 274.503906 422.007812 277.421875 C 411.195312 279.195312 391.0625 279.195312 379.023438 277.421875 C 341.28125 271.820312 300.523438 244.539062 285.523438 214.933594 C 282.519531 208.976562 279.171875 199.671875 277.320312 192.039062 C 274.988281 182.46875 275.265625 151.527344 277.789062 138.847656 C 284.132812 107.058594 301.15625 78.207031 323.050781 62.011719 L 328.210938 58.234375 L 324.519531 57.320312 C 319.167969 55.972656 307.105469 56.148438 301.132812 57.738281 C 294.480469 59.40625 287.761719 63.023438 282.304688 67.796875 L 277.949219 71.667969 L 277.949219 69.144531 C 277.949219 64.355469 287.042969 57.320312 298.5 53.289062 C 304.546875 51.179688 306.285156 50.945312 316.113281 51.023438 C 325.265625 51.023438 327.75 51.363281 331.539062 52.871094 C 335.441406 54.378906 336.355469 54.464844 338.25 53.550781 C 339.453125 52.949219 346.386719 50.425781 353.652344 47.921875 C 360.914062 45.476562 366.863281 43.132812 366.863281 42.878906 C 366.863281 41.960938 358.183594 36.421875 353.90625 34.589844 C 348.257812 32.148438 339.777344 30.894531 333.167969 31.570312 C 326.535156 32.148438 313.851562 36.003906 304.882812 40.113281 C 297.921875 43.316406 297.242188 43.472656 297.242188 41.800781 C 297.242188 40.113281 310.6875 32.5625 318.210938 30.058594 C 331.515625 25.609375 344.417969 25.089844 354.550781 28.625 C 359.949219 30.558594 370.628906 37.269531 371.863281 39.539062 C 372.609375 40.945312 373.128906 40.871094 381.289062 39.019531 C 388.648438 37.351562 391.925781 37.09375 403.351562 37.175781 C 424.875 37.433594 436.507812 40.292969 454.445312 49.511719 C 491.175781 68.550781 513.679688 97.738281 522.136719 137.417969 C 525.523438 153.277344 524.402344 175.765625 519.417969 192.039062 C 517.109375 199.59375 509.796875 214.933594 504.921875 222.484375 L 501.003906 228.523438 L 504.292969 232.042969 C 506.105469 234.070312 510.972656 240.6875 515.113281 246.902344 C 519.25 253.105469 525.246094 261.15625 528.433594 264.847656 C 553.28125 293.621094 616.125 385.558594 642.824219 432.195312 C 646.65625 438.910156 650.640625 445.707031 651.671875 447.296875 C 653.945312 450.832031 654.195312 452.582031 655.839844 476.25 C 656.554688 486.402344 658.0625 506.011719 659.203125 519.863281 C 662.726562 562.484375 664.597656 592.507812 665.585938 622.214844 C 666.445312 647.789062 666.695312 650.886719 668.070312 652.398438 C 671.207031 655.933594 672.507812 660.546875 672.75 669.1875 C 672.882812 673.796875 673.40625 679.917969 673.917969 682.859375 C 675.78125 693.589844 671.804688 705.332031 665.25 708.433594 C 661.390625 710.28125 659.464844 710.199219 656.878906 708.195312 C 652.886719 705.09375 651.78125 700.644531 651.394531 686.21875 C 650.898438 667.5 652.945312 657.605469 658.527344 651.824219 L 660.710938 649.554688 L 660.183594 626.226562 C 659.648438 602.742188 657.132812 562.148438 653.332031 515.671875 C 652.199219 501.820312 650.851562 482.785156 650.328125 473.308594 C 649.808594 463.828125 649.089844 455.78125 648.71875 455.265625 C 648.359375 454.765625 643.730469 446.878906 638.4375 437.660156 C 625.535156 415.167969 606.351562 384.726562 588.726562 358.796875 C 584.960938 353.269531 576.65625 341.007812 570.273438 331.535156 C 563.890625 322.054688 554.328125 308.304688 549.027344 300.914062 C 536.292969 283.226562 536.042969 282.890625 535.722656 283.226562 C 535.574219 283.308594 537.484375 287.757812 539.96875 293.042969 C 556.355469 327.757812 569.167969 373.65625 576.113281 422.558594 C 580.839844 455.78125 582.855469 483.378906 585.800781 555.429688 C 586.261719 566.597656 586.855469 576.15625 587.125 576.574219 C 587.394531 577.070312 587.714844 579.75 587.839844 582.613281 C 587.972656 585.453125 588.878906 592.925781 589.867188 599.148438 C 591.445312 609.121094 594.457031 641.171875 598.800781 693.929688 C 600.539062 714.988281 603.324219 736.96875 607.609375 763.136719 C 610.023438 777.898438 610.871094 785.292969 610.503906 788.054688 C 610.074219 791.234375 610.503906 793.578125 612.53125 799.796875 C 613.941406 804.066406 617.925781 817.738281 621.382812 830.238281 C 631.441406 866.480469 638.453125 885.855469 660.394531 937.875 C 666.425781 952.222656 668.839844 958.839844 668.496094 960.269531 C 667.886719 962.695312 663.070312 968.496094 658.945312 971.753906 C 652.585938 976.882812 637.949219 982.84375 625.742188 985.34375 C 618.691406 986.855469 616.800781 986.855469 612.859375 985.761719 Z M 635.699219 977.457031 C 648.113281 973.441406 654.378906 970.246094 659.445312 965.136719 C 661.898438 962.695312 663.699219 960.347656 663.457031 959.929688 C 662.441406 958.339844 644.808594 962.613281 632.136719 967.5625 C 619.488281 972.429688 612.0625 977.972656 615.148438 980.058594 C 617.253906 981.492188 626.808594 980.238281 635.699219 977.457031 Z M 406.328125 937.277344 C 404.644531 934.101562 389.753906 921.003906 381.324219 915.304688 C 372.878906 909.519531 364.515625 905.148438 359.941406 903.976562 C 356.445312 903.140625 356.933594 905.824219 361.367188 911.863281 C 368.742188 921.941406 380.546875 929.648438 397.898438 935.949219 C 407.316406 939.304688 407.425781 939.304688 406.328125 937.277344 Z M 665.648438 702.570312 C 666.347656 701.734375 667.347656 699.808594 667.878906 698.199219 C 669.042969 694.761719 669.136719 681.925781 668.019531 678.070312 C 667.417969 675.984375 667.5 674.8125 668.355469 673.617188 C 669.3125 672.289062 669.3125 671.195312 668.355469 667.261719 C 666.433594 658.957031 664.398438 655.339844 661.710938 655.339844 C 658.542969 655.339844 655.746094 671.273438 656.496094 685.046875 C 657.058594 695.4375 658.089844 699.96875 660.46875 702.394531 C 662.484375 704.417969 663.976562 704.417969 665.621094 702.570312 Z M 442.925781 568.765625 C 442.675781 567.253906 442.195312 564.332031 441.859375 562.226562 L 441.261719 558.449219 L 440.167969 560.972656 C 438.128906 565.664062 439.167969 571.449219 442.0625 571.449219 C 443.085938 571.449219 443.277344 570.871094 442.925781 568.765625 Z M 470.816406 549.886719 C 470.816406 549.3125 470.3125 548.8125 469.617188 548.8125 C 468.273438 548.8125 468.007812 550.222656 468.921875 552.667969 C 469.449219 554 469.535156 554 470.121094 552.488281 C 470.472656 551.65625 470.785156 550.402344 470.816406 549.886719 Z M 427.316406 269.976562 C 450.835938 265.027344 473.140625 252.945312 487.15625 237.425781 C 498.992188 224.328125 510.070312 204.445312 514.089844 188.921875 C 516.238281 180.632812 516.597656 176.425781 516.539062 159.996094 C 516.457031 145.722656 516.339844 144.316406 513.804688 134.816406 C 509.578125 118.980469 505.230469 109.0625 497.027344 96.667969 C 481.667969 73.335938 450.523438 51.699219 423.945312 45.738281 C 415.574219 43.890625 412.152344 43.550781 398.738281 43.472656 C 385.285156 43.390625 381.886719 43.632812 373.152344 45.476562 C 363.128906 47.503906 363.105469 47.503906 367.441406 48.003906 C 376.921875 49.019531 373.816406 51.441406 362.058594 52.277344 C 333.394531 54.304688 310.308594 72.160156 294.726562 104.632812 C 286.992188 120.730469 283.519531 134.160156 282.050781 153.53125 C 279.445312 188.171875 287.4375 211.832031 308.976562 233.390625 C 311.980469 236.414062 315.835938 239.929688 317.550781 241.28125 L 320.652344 243.625 L 325.957031 241.441406 C 336.90625 237.085938 350.941406 234.226562 376.089844 231.203125 C 397.695312 228.601562 455.140625 228.785156 462.035156 231.386719 C 463.996094 232.144531 463.578125 234.90625 461.253906 236.414062 C 459.441406 237.585938 458.125 237.664062 450.660156 236.832031 C 427.082031 234.226562 392.3125 234.90625 364.480469 238.5 C 344.257812 241.019531 326.703125 245.132812 326.617188 247.242188 C 326.617188 248.316406 336.679688 254.457031 345.894531 258.984375 C 365.453125 268.625 379.445312 271.726562 402.929688 271.902344 C 415.398438 271.984375 419.070312 271.640625 427.316406 269.976562 Z M 305.621094 197.484375 C 301.460938 193.371094 298.917969 185.324219 298.917969 176.425781 C 298.917969 169.210938 299.726562 167.542969 303.492188 166.863281 C 306.871094 166.292969 309.078125 167.28125 312.777344 171.058594 C 320.566406 178.949219 321.960938 192.039062 315.695312 198.320312 C 312.347656 201.597656 309.53125 201.4375 305.621094 197.484375 Z M 344.769531 187.257812 C 340.617188 183.65625 338.144531 177.28125 337.691406 169.132812 C 337.25 161.421875 338.664062 157.132812 342.152344 155.539062 C 344.929688 154.292969 347.453125 155.304688 350.875 159.234375 C 355.75 164.777344 357.621094 169.96875 357.628906 177.851562 C 357.628906 184.492188 357.503906 184.988281 355.1875 187.332031 C 351.914062 190.613281 348.535156 190.613281 344.769531 187.257812 Z M 284.660156 169.804688 C 284.660156 161.839844 290.507812 148.40625 296.066406 143.460938 C 297.722656 142.046875 302.273438 140.019531 302.273438 140.699219 C 302.273438 140.957031 300.570312 143.21875 298.492188 145.824219 C 293.214844 152.28125 290.546875 157.882812 288.863281 166.292969 C 287.8125 171.476562 287.042969 173.503906 286.035156 173.664062 C 284.914062 173.921875 284.660156 173.246094 284.660156 169.804688 Z M 367.28125 146.996094 C 365.582031 143.722656 353.835938 138.015625 346.671875 137.003906 C 343.9375 136.660156 341.414062 136.089844 341.070312 135.75 C 339.679688 134.316406 343.863281 132.730469 348.839844 132.730469 C 356.058594 132.730469 362.105469 135.832031 365.863281 141.535156 C 369.972656 147.75 370.328125 148.503906 369.421875 149.082031 C 368.976562 149.339844 368.011719 148.40625 367.28125 146.996094 Z M 407.125 983.914062 C 405.273438 983 405.03125 982.324219 405.046875 978.3125 C 405.046875 974.535156 405.539062 973.027344 407.753906 969.828125 C 411.359375 964.539062 418.699219 959.175781 430.035156 953.472656 C 435.199219 950.871094 439.546875 948.683594 439.703125 948.527344 C 440.015625 948.1875 435.15625 935.691406 431.351562 926.964844 C 429.386719 922.4375 429.0625 920.925781 429.773438 919.574219 C 432.132812 915.222656 433.867188 917.90625 441.675781 938.453125 C 446.996094 952.378906 447.339844 953.890625 446.449219 958.679688 C 444.914062 966.886719 438.398438 974.355469 428.371094 979.402344 C 418.234375 984.511719 411.21875 986.019531 407.125 983.914062 Z M 425.863281 975.113281 C 434.527344 971 437.515625 968.496094 440.308594 962.792969 C 442.808594 957.664062 442.632812 953.96875 439.890625 953.96875 C 437.589844 953.96875 431.890625 956.574219 425.210938 960.6875 C 416.78125 965.8125 413.390625 968.734375 411.230469 972.847656 C 409.546875 976.046875 409.457031 976.621094 410.488281 977.894531 C 412.21875 979.980469 417.5625 978.96875 425.863281 975.113281 Z M 219.878906 925.457031 C 211.785156 924.203125 198.304688 917.566406 192.769531 912.203125 C 187.03125 906.578125 186.964844 902.644531 192.566406 899.785156 C 196.308594 897.855469 204.679688 898.613281 211.960938 901.550781 C 218.546875 904.234375 231.402344 911.707031 236.679688 915.980469 C 238.667969 917.648438 240.453125 918.738281 240.65625 918.582031 C 240.859375 918.402344 244.941406 909.9375 249.738281 899.785156 C 264.460938 868.746094 286.511719 824.457031 296.253906 806.332031 C 305.210938 789.722656 305.453125 789.144531 303.683594 788.390625 C 287.496094 781.417969 285.917969 780.503906 286.105469 778.496094 C 286.773438 771.441406 288.257812 761.207031 290.457031 748.449219 C 299.0625 698.714844 304.964844 643.019531 306.539062 596.703125 C 308.355469 543.089844 304.457031 487.476562 295.175781 434.878906 C 293.9375 427.84375 294.113281 425.5 295.910156 425.5 C 297.761719 425.5 303.273438 452.582031 306.425781 477.160156 C 310.34375 507.703125 312.808594 553.164062 311.953125 578.996094 C 311.710938 586.128906 311.308594 598.628906 311.050781 606.699219 C 309.746094 647.289062 301.5625 717.671875 292.621094 765.242188 C 291.53125 771.023438 290.898438 775.972656 291.21875 776.230469 C 292.570312 777.304688 305.753906 782.847656 311.921875 784.855469 C 328.554688 790.320312 344.878906 790.894531 364.515625 786.703125 C 379.378906 783.523438 400.871094 776.726562 400.054688 775.375 C 398.671875 773.109375 395.660156 731.601562 394.125 693.511719 C 390.003906 591.496094 386.238281 556.445312 374.832031 514.238281 C 366.585938 483.800781 350.546875 437.402344 341.398438 417.609375 C 338.335938 410.972656 338.210938 408.707031 340.910156 408.707031 C 342.90625 408.707031 345.707031 414.589844 354.421875 437.0625 C 374.421875 488.566406 385.976562 530.015625 390.710938 567.175781 C 393.789062 591.335938 396.933594 637.21875 399.15625 690.570312 C 399.859375 707.441406 401.027344 728.402344 401.75 737.125 C 403.835938 762.539062 404.207031 776.390625 402.832031 777.484375 C 398.730469 780.660156 375.242188 788.292969 357.527344 792.164062 C 344.953125 794.925781 327.429688 794.925781 317.097656 792.164062 C 313.019531 791.152344 309.597656 790.398438 309.480469 790.558594 C 305.816406 795.601562 265.015625 877.050781 252.835938 903.636719 C 248.5 913.117188 243.976562 921.839844 242.789062 923.109375 C 240.796875 925.199219 239.976562 925.457031 232.652344 925.792969 C 228.273438 926.050781 222.519531 925.875 219.878906 925.457031 Z M 232.6875 919.675781 C 228.390625 916.316406 212.253906 907.511719 207.011719 905.664062 C 201.558594 903.636719 194.066406 902.984375 194.066406 904.394531 C 194.066406 905.824219 202.648438 912.699219 207.65625 915.382812 C 215.769531 919.753906 220.714844 921.085938 228.039062 921.183594 L 234.75 921.265625 Z M 333.125 904.3125 C 330.953125 897.101562 330.644531 893.742188 331.675781 888.796875 C 332.488281 884.859375 333.351562 883.351562 336.96875 879.734375 C 340.390625 876.375 342.402344 875.125 346.730469 873.875 C 356.328125 870.933594 368.910156 872.105469 366 875.542969 C 365.429688 876.296875 363.085938 876.636719 359.480469 876.554688 C 353.199219 876.457031 345.097656 878.5625 341.414062 881.164062 C 336.742188 884.523438 335.515625 891.320312 337.921875 900.617188 C 339.308594 905.902344 338.628906 908.6875 335.953125 908.6875 C 334.878906 908.6875 334.085938 907.414062 333.125 904.3125 Z M 170.09375 905.746094 C 168.660156 900.042969 173.449219 887.78125 178.660156 883.769531 C 180.6875 882.257812 182.628906 881.582031 185.09375 881.503906 C 189.792969 881.503906 193.230469 882.417969 193.230469 883.847656 C 193.230469 885.4375 191.335938 886.035156 185.992188 886.035156 C 179.808594 886.035156 178.046875 888.039062 174.75 898.691406 C 172.023438 907.511719 170.941406 909.183594 170.09375 905.746094 Z M 420.292969 900.121094 C 419.5 899.527344 416.425781 892.152344 413.46875 883.769531 C 410.515625 875.382812 403.964844 859.527344 398.921875 848.539062 C 388.476562 825.808594 377.429688 796.933594 378.210938 794.511719 C 378.96875 792.164062 380.9375 792.585938 382.757812 795.601562 C 383.648438 797.035156 386.542969 803.910156 389.183594 810.863281 C 394.242188 824.199219 396.917969 830.417969 407.554688 853.726562 C 414.0625 867.992188 424.253906 896.605469 423.75 899.207031 C 423.390625 901.035156 422.058594 901.375 420.292969 900.121094 Z M 688.101562 710.695312 C 690.652344 707.179688 695.339844 696.53125 697.296875 689.992188 C 698.234375 686.792969 699.285156 680.515625 699.644531 675.882812 C 700.15625 669.269531 700.558594 667.5 701.546875 667.5 C 702.542969 667.5 702.855469 668.929688 703.050781 674.554688 C 703.476562 686.714844 698.671875 701.058594 691.441406 709.285156 C 687.613281 713.636719 685.332031 714.652344 688.101562 710.695312 Z M 259.753906 684.371094 C 257.515625 682.441406 257.382812 681.925781 257.121094 674.058594 C 256.625 659.113281 261.273438 641.667969 267.328125 635.628906 C 270.574219 632.449219 270.777344 631.851562 272.253906 623.050781 C 279.382812 580.347656 283.554688 526.5 284.542969 464.503906 C 285.027344 433.882812 285.207031 430.945312 286.496094 430.683594 C 288.863281 430.269531 289.273438 435.136719 289.25 463.234375 C 289.164062 517.679688 285.363281 570.789062 278.023438 618.679688 L 275.617188 634.375 L 277.269531 637.554688 C 278.65625 640.160156 278.855469 641.828125 278.546875 647.964844 C 278.242188 653.828125 278.402344 655.339844 279.394531 655.679688 C 281.003906 656.351562 280.222656 661.121094 277.09375 669.765625 C 274.125 677.910156 270.199219 683.695312 266.558594 685.203125 C 262.835938 686.792969 262.5 686.714844 259.753906 684.371094 Z M 268.171875 677.832031 C 269.292969 676.324219 271.128906 672.445312 272.238281 669.1875 C 273.957031 664.242188 274.25 661.796875 274.199219 653.253906 C 274.117188 639.324219 271.574219 634.613281 268.035156 641.746094 C 263.027344 651.824219 260.285156 675.128906 263.632812 679.164062 C 265.199219 681.089844 265.851562 680.832031 268.171875 677.832031 Z M 189.070312 430.367188 C 187.632812 426.492188 186.191406 422.71875 185.855469 421.960938 C 185.320312 420.632812 184.867188 420.710938 181.394531 422.976562 C 171.445312 429.511719 150.601562 435.96875 141.492188 435.394531 C 133.640625 434.878906 132.976562 433.804688 137.003906 427.84375 C 142.65625 419.457031 150.921875 395.457031 155.097656 375.324219 C 158.066406 360.976562 159.125 349.417969 158.476562 338.167969 C 157.980469 329.683594 158.09375 328.351562 159.308594 327.339844 C 160.507812 326.34375 160.851562 326.34375 161.792969 327.675781 C 164.414062 331.191406 164.386719 354.367188 161.707031 369.703125 C 158.703125 387.148438 151.332031 411.152344 145.25 423.234375 L 141.878906 429.929688 L 147.203125 429.433594 C 157.347656 428.519531 176.546875 421.128906 183.492188 415.503906 C 185.3125 414.09375 187.382812 413 188.097656 413.082031 C 188.882812 413.238281 190.402344 416.179688 191.953125 420.453125 C 195.496094 430.367188 195.183594 430.027344 199.320312 427.425781 C 204.832031 423.988281 212.539062 418.027344 216.78125 413.992188 C 219.585938 411.3125 221.210938 410.316406 222.65625 410.554688 C 224.171875 410.734375 224.601562 411.3125 224.441406 412.742188 C 224.207031 414.925781 225.84375 418.445312 229.492188 423.570312 L 232.007812 427.089844 L 236.253906 424.902344 C 238.585938 423.730469 243.601562 419.796875 247.402344 416.179688 C 251.199219 412.484375 254.707031 409.5625 255.191406 409.5625 C 256.761719 409.5625 261.121094 418.1875 261.132812 421.386719 C 261.132812 427.347656 257.492188 427.246094 254.394531 421.207031 L 252.675781 417.847656 L 247.484375 422.558594 C 244.625 425.160156 239.96875 428.339844 237.140625 429.769531 C 234.316406 431.121094 231.53125 432.792969 230.949219 433.46875 C 229.53125 435.136719 227.058594 435.054688 226.363281 433.289062 C 225.210938 430.269531 218.753906 419.695312 218.058594 419.617188 C 217.664062 419.617188 215.585938 421.046875 213.445312 422.894531 C 211.304688 424.644531 206.734375 427.921875 203.296875 430.1875 C 199.847656 432.453125 196.359375 434.976562 195.535156 435.8125 C 192.828125 438.414062 191.746094 437.480469 189.035156 430.367188 Z M 281.320312 425.398438 C 278.535156 424.226562 276.355469 422.21875 274.894531 419.359375 C 273.820312 417.351562 273.921875 416.019531 275.863281 406.78125 C 279.753906 388.421875 282.035156 369.878906 282.269531 354.9375 C 282.445312 343.691406 282.269531 340.589844 281.269531 339.417969 C 276.597656 333.378906 274.125 330.699219 273.367188 330.699219 C 272.890625 330.699219 269.496094 331.871094 265.828125 333.300781 C 244.675781 341.527344 217.054688 342.957031 193.632812 336.996094 C 178.273438 333.144531 159.980469 324.082031 145.679688 313.335938 C 127.695312 299.917969 115.933594 283.226562 110.597656 263.59375 C 108.804688 256.960938 108.277344 252.527344 107.554688 237.585938 C 106.445312 214.597656 107.09375 181.472656 108.8125 173.246094 C 112.125 157.464844 120.050781 139.191406 130.167969 123.929688 C 137.0625 113.519531 155.84375 94.398438 166.808594 86.667969 C 176.042969 80.210938 189.226562 73.753906 198.003906 71.40625 C 206.15625 69.222656 225.414062 68.726562 232.652344 70.578125 C 240.070312 72.421875 246.066406 75.601562 247.835938 78.542969 L 249.414062 81.222656 L 256.339844 78.960938 C 265.90625 75.761719 276.121094 74.589844 284.953125 75.679688 C 292.402344 76.617188 300.605469 78.703125 300.582031 79.714844 C 300.582031 80.050781 299.859375 81.222656 298.996094 82.320312 L 297.433594 84.324219 L 292.519531 82.898438 C 289.492188 81.976562 283.554688 81.222656 277.109375 80.964844 C 267.628906 80.628906 265.820312 80.804688 258.238281 82.816406 C 245.128906 86.332031 245.890625 86.25 246.207031 83.988281 C 246.445312 82.394531 246.015625 81.976562 243.976562 81.464844 C 242.59375 81.148438 239.65625 80.132812 237.460938 79.121094 C 227.773438 74.691406 211.945312 73.59375 198.847656 76.515625 C 174.425781 81.902344 144.269531 106.800781 128.421875 134.660156 C 117.78125 153.355469 111.128906 177.515625 112.015625 194.386719 L 112.285156 199.410156 L 114.265625 193.371094 L 116.253906 187.332031 L 119.574219 189.023438 C 125.042969 191.78125 135.042969 193.96875 142.472656 193.96875 L 149.328125 193.96875 L 146.792969 188.84375 C 145.140625 185.484375 144.234375 182.382812 144.210938 179.960938 C 144.125 176.425781 144.386719 176.007812 146.492188 175.347656 C 148.539062 174.59375 149.234375 174.914062 152.246094 177.617188 C 157.90625 182.726562 166.421875 185.582031 176.242188 185.582031 C 179.589844 185.582031 182.324219 185.40625 182.324219 185.148438 C 182.324219 184.910156 181.425781 182.566406 180.320312 179.878906 C 177.226562 172.492188 176.796875 168.457031 178.886719 166.371094 C 180.949219 164.265625 182.074219 164.601562 187.777344 168.875 C 190.085938 170.640625 194.363281 172.828125 197.28125 173.839844 C 203.09375 175.765625 213.980469 176.863281 218.535156 176.007812 L 221.421875 175.507812 L 220.625 169.628906 C 220.070312 165.4375 220.113281 162.75 220.769531 160.589844 L 221.714844 157.390625 L 231.589844 157.464844 C 242.835938 157.464844 245.613281 158.402344 253.371094 164.777344 C 262.984375 172.75 270.785156 185.246094 280.925781 209.070312 C 292.394531 235.996094 299.070312 267.867188 301.460938 307.128906 C 301.949219 315.179688 302.492188 321.976562 302.667969 322.3125 C 302.84375 322.574219 303.421875 329.609375 303.953125 337.910156 C 305.570312 363.320312 303.113281 388.839844 297.628906 403.421875 C 296.480469 406.445312 295.648438 409.046875 295.765625 409.226562 C 296.191406 409.640625 312.757812 399.308594 316.390625 396.386719 C 318.386719 394.703125 321.390625 391.519531 323.070312 389.335938 C 324.746094 387.066406 326.71875 385.222656 327.445312 385.222656 C 328.203125 385.222656 329.234375 386.496094 329.828125 388.164062 C 331.332031 392.277344 336.664062 396.546875 342.410156 398.136719 C 350.882812 400.503906 351.277344 400.324219 352.371094 393.941406 C 353.644531 386.570312 356.621094 380.609375 359.085938 380.609375 C 360.464844 380.609375 361.460938 381.625 362.859375 384.386719 C 365.152344 388.917969 370.34375 392.097656 378.773438 394.042969 C 387.941406 396.128906 388.511719 395.710938 385.191406 389.175781 C 382.648438 384.226562 366.453125 334.132812 364.824219 326.25 C 361.386719 309.558594 359.65625 278.695312 362.15625 278.695312 C 363.980469 278.695312 364.339844 280.445312 366.476562 299.660156 C 369.019531 322.574219 369.195312 323.402344 376.519531 344.550781 C 386.03125 372.046875 393.050781 394.285156 392.5 395.214844 C 392.226562 395.632812 392.378906 396.210938 392.851562 396.546875 C 394.476562 397.5625 393.695312 399.308594 391.15625 400.324219 C 387.625 401.832031 377.046875 400.917969 370.308594 398.554688 C 366.777344 397.382812 363.851562 395.632812 361.714844 393.53125 C 359.933594 391.679688 358.332031 390.265625 358.164062 390.265625 C 357.996094 390.265625 357.425781 392.433594 356.90625 395.117188 C 356.378906 397.71875 355.171875 401.15625 354.222656 402.765625 L 352.484375 405.609375 L 346.882812 405.113281 C 338.578125 404.355469 333.546875 402.332031 329.074219 397.800781 L 325.191406 393.941406 L 320.652344 398.058594 C 318.152344 400.324219 312.574219 404.277344 308.253906 406.859375 L 300.394531 411.570312 L 303.8125 414.75 C 306.902344 417.609375 307.449219 417.847656 309.574219 417.015625 C 312.902344 415.761719 318.386719 411.3125 322.015625 406.960938 C 323.714844 404.933594 325.441406 403.183594 325.855469 403.003906 C 327.035156 402.507812 326.71875 406.859375 325.375 409.464844 C 323.816406 412.484375 316.316406 419.28125 312.207031 421.386719 C 308.742188 423.132812 302.308594 423.472656 300.832031 422.0625 C 300.144531 421.386719 298.71875 421.722656 295.421875 423.3125 C 290.28125 425.835938 284.332031 426.671875 281.320312 425.398438 Z M 293.835938 418.703125 C 297.015625 417.351562 297.871094 416.597656 297.871094 415.007812 L 297.871094 413.082031 L 293.894531 415.503906 C 290.3125 417.691406 284.9375 418.863281 285.640625 417.351562 C 285.800781 416.933594 287.503906 413.496094 289.433594 409.5625 C 295.609375 397.042969 298.875 379.519531 298.902344 358.972656 C 298.902344 348.402344 298.800781 347.46875 297.601562 348.664062 C 295.984375 350.332031 295.964844 350.332031 293.476562 348.664062 C 292.292969 347.910156 290.742188 347.566406 289.734375 347.910156 C 288.152344 348.402344 288.015625 349.082031 288.015625 356.789062 C 288.015625 365.765625 287.820312 365.589844 292.417969 362.410156 C 294.566406 360.898438 294.726562 360.898438 294.726562 362.230469 C 294.726562 363.085938 293.089844 365.253906 291.09375 367.097656 L 287.460938 370.539062 L 285.171875 386.058594 C 283.914062 394.621094 282.152344 404.097656 281.253906 407.199219 C 279.132812 414.410156 279.183594 415.085938 282.074219 418.027344 C 285.054688 420.96875 288.140625 421.128906 293.835938 418.703125 Z M 298.097656 329.859375 C 296.773438 315.597656 296.890625 315.855469 293.609375 318.378906 C 292.140625 319.449219 288.308594 321.976562 285.078125 323.980469 C 281.847656 325.90625 279.039062 327.675781 278.839844 327.859375 C 278.636719 328.09375 280.015625 329.785156 281.890625 331.792969 C 283.769531 333.71875 286.296875 336.914062 287.511719 338.921875 C 288.8125 341.007812 290.347656 342.441406 291.253906 342.441406 C 292.109375 342.441406 294.078125 343.277344 295.648438 344.367188 L 298.5 346.292969 L 298.785156 343.277344 C 298.945312 341.6875 298.632812 335.648438 298.097656 329.859375 Z M 248.171875 332.390625 C 263.621094 329.367188 278.328125 323.226562 290.707031 314.601562 L 295.496094 311.242188 L 295.042969 304.371094 C 293.15625 275.835938 285.75 238.421875 278.25 219.644531 C 273.679688 208.136719 265.015625 189.441406 261.863281 184.152344 C 253.273438 169.804688 238.929688 160.070312 229.015625 161.761719 L 225.734375 162.257812 L 226.277344 166.949219 C 226.578125 169.46875 227.445312 172.910156 228.207031 174.496094 C 230.320312 178.949219 229.164062 179.960938 220.398438 181.210938 C 207.808594 182.980469 195.308594 181.210938 188.742188 176.761719 C 187.058594 175.667969 185.679688 175.09375 185.679688 175.507812 C 185.679688 176.007812 186.855469 178.867188 188.300781 181.890625 C 190.648438 186.839844 190.78125 187.511719 189.625 188.683594 C 187.242188 191.109375 171.226562 191.707031 163.082031 189.777344 C 160.800781 189.261719 157.179688 187.667969 155.023438 186.335938 C 152.859375 184.910156 150.972656 183.898438 150.820312 184.074219 C 150.054688 184.828125 154.617188 191.285156 156.957031 192.703125 C 158.4375 193.632812 159.550781 194.964844 159.441406 195.640625 C 159.003906 198.320312 154.636719 199.257812 143.335938 199.257812 C 133.0625 199.175781 126.722656 198.085938 120.1875 195.300781 C 118.667969 194.644531 117.929688 196.730469 115.488281 208.214844 C 113.339844 218.371094 113.316406 248.835938 115.40625 257.21875 C 117.484375 265.34375 120.664062 273.074219 125.144531 280.78125 C 129.824219 288.851562 144.394531 303.929688 153.65625 310.386719 C 159.300781 314.339844 159.988281 314.601562 161.625 313.511719 C 164.222656 311.820312 181.882812 305.882812 194.027344 302.597656 C 219.433594 295.628906 248.5 290.261719 261.132812 290.101562 C 268.613281 290.023438 269.117188 290.101562 269.351562 291.769531 C 269.753906 294.554688 267.78125 295.386719 259.804688 295.804688 C 241.476562 296.820312 199.167969 305.539062 176.679688 312.914062 C 170.128906 315.019531 164.96875 317.105469 165.203125 317.449219 C 165.765625 318.378906 175.558594 323.328125 182.222656 326.007812 C 196.058594 331.628906 208.34375 333.898438 226.070312 333.972656 C 236.160156 334.054688 241.320312 333.636719 248.128906 332.390625 Z M 154.890625 273.652344 C 150.28125 271.820312 142.902344 256.382812 142.902344 248.652344 C 142.902344 240.191406 150.140625 237.246094 156.828125 242.949219 C 165.945312 250.761719 168.476562 266.097656 161.648438 272.058594 C 159.527344 273.988281 157.101562 274.503906 154.890625 273.652344 Z M 192.15625 260.234375 C 188.398438 257.296875 184.035156 245.972656 184.011719 239.175781 C 184.011719 237.585938 184.605469 234.488281 185.335938 232.300781 L 186.679688 228.367188 L 190.765625 228.367188 C 196.003906 228.367188 199.699219 231.386719 203.296875 238.675781 C 207.730469 247.738281 207.5 256.464844 202.699219 260.234375 C 199.898438 262.421875 194.957031 262.421875 192.15625 260.234375 Z M 126.328125 249.824219 C 126.753906 246.054688 126.722656 245.972656 124.3125 245.972656 C 120.957031 245.972656 115.464844 243.03125 114.777344 240.863281 C 113.84375 237.921875 115.496094 237.328125 118.886719 239.355469 C 120.582031 240.269531 123.28125 241.441406 124.902344 241.777344 C 127.609375 242.375 127.945312 242.277344 129.144531 239.929688 C 129.859375 238.597656 130.320312 237.328125 130.167969 237.246094 C 130.023438 237.167969 128.324219 236.574219 126.394531 236.070312 C 122.167969 234.824219 118.578125 230.871094 118.578125 227.429688 C 118.578125 224.488281 119.582031 224.328125 121 226.933594 C 122.542969 229.695312 125.855469 231.800781 129.464844 232.300781 C 132.308594 232.71875 132.835938 232.476562 134.160156 230.375 C 136.628906 226.339844 140.617188 222.484375 142.230469 222.484375 C 144.351562 222.484375 144.117188 223.835938 141.367188 227.429688 C 137.214844 232.71875 133.363281 240.347656 131.492188 246.808594 C 129.984375 252.011719 129.355469 253.183594 127.785156 253.359375 C 126 253.699219 125.914062 253.441406 126.328125 249.824219 Z M 217.554688 232.71875 C 217.554688 232.300781 216.851562 231.625 215.976562 231.203125 C 215.113281 230.785156 212.480469 228.105469 210.121094 225.25 C 204.453125 218.371094 195.460938 213.683594 188.027344 213.683594 C 182.636719 213.683594 181.738281 212.585938 185.285156 210.242188 C 188.003906 208.472656 195.59375 208.976562 200.988281 211.414062 C 204.59375 213.003906 204.890625 213.003906 206.96875 211.671875 C 208.171875 210.820312 210.886719 207.980469 213.011719 205.199219 C 217.160156 199.832031 217.933594 199.257812 218.796875 200.683594 C 219.671875 202.015625 216.136719 208.554688 212.480469 212.328125 L 209.183594 215.769531 L 212.320312 218.707031 C 214.050781 220.300781 215.804688 221.648438 216.222656 221.648438 C 217.210938 221.648438 224.636719 213.683594 227.375 209.730469 C 229.289062 206.882812 230.976562 205.632812 230.976562 207.042969 C 230.976562 208.890625 223.542969 221.3125 221.136719 223.417969 C 218.484375 225.683594 218.234375 226.261719 218.628906 229.277344 C 218.875 231.046875 218.730469 232.796875 218.308594 233.054688 C 217.898438 233.316406 217.554688 233.132812 217.554688 232.71875 Z M 217.554688 232.71875 "/></g></g></svg>